<svg xmlns="http://www.w3.org/2000/svg" viewBox="0 0 512 512"><path d="M512 406V16H0v390h180v30c0 16.542-13.458 30-30 30H75v30h362v-30h-75c-16.542 0-30-13.458-30-30v-30h180zM331 46h151v45H361v30h121v120H361v30h121v45H331V46zm-60 0h30v270h-30V46zM30 46h211v51.525c-21.893 4.484-40.837 18.599-51.335 38.475H60v90h129.665c10.498 19.876 29.442 33.991 51.335 38.475V316H30V46zm211 82.588v104.824c-12.563-4.457-22.822-14.379-27.43-27.412l-3.536-10H90v-30h120.034l3.535-10c4.608-13.033 14.868-22.955 27.431-27.412zM201.928 466A59.608 59.608 0 00210 436v-30h92v30a59.608 59.608 0 008.072 30H201.928zM30 376v-30h452v30H30z"/><path d="M361 166h91v30h-91z"/></svg>